<svg id="SvgjsSvg1165" width="100%" height="100%" xmlns="http://www.w3.org/2000/svg" version="1.1" xlink="http://www.w3.org/1999/xlink" xmlns:svgjs="http://svgjs.com/svgjs" preserveAspectRatio="xMidYMid meet" viewBox="-7.291995451907951e-9 5.973903682843229e-8 300.0000305175781 64.36310577392578" overflow="visible"><defs id="SvgjsDefs1166"><linearGradient id="SvgjsLinearGradient7hV4dlH5zJ" gradientUnits="userSpaceOnUse" x1="2.6697502136230606" y1="97.32975339889526" x2="97.3302536010742" y2="2.6692500114440914"><stop id="SvgjsStop1169" stop-color="#5475d8" offset="0.05"></stop><stop id="SvgjsStop1170" stop-color="#203b8d" offset="0.95"></stop></linearGradient></defs><g id="SvgjsG1167" transform="scale(0.653061282985363)" opacity="1"><g id="SvgjsG1171" class="EEu6hkaW4" transform="translate(-2.7798620058837376, -2.778820648576689) scale(1.0411467889327843)" light-content="false" non-strokable="false" fill="url(#SvgjsLinearGradient7hV4dlH5zJ)"><path d="M50 97.33L2.67 50 50 2.669 97.33 50 50 97.33zM4.931 50L50 95.069 95.069 50 50 4.93 4.931 50z"></path><path d="M50.639 7.83l41.373 41.373-54.342 9.149zm-14.87 51.499l-29.528-9.51L49.25 6.811 35.769 59.329zM9.222 49.1l25.421 8.188 11.605-45.213L9.222 49.1zm39.675 43.736L6.949 50.888l28.801 9.275 13.147 32.673zM12.762 54.439l31.729 31.729-9.945-24.713-21.784-7.016zm24.958 6.336l53.283-8.97-40.568 40.568z"></path></g><g id="SvgjsG1172" class="text" transform="translate(296.71496251528015, 51.73300045776367) scale(1)" light-content="false" fill="#203b8d"><path d="M-160.89 -44.19C-161.07 -43.97 -161.16 -43.66 -161.16 -43.26L-161.16 -1.38C-161.16 -0.9 -161.06 -0.55 -160.86 -0.33C-160.66 -0.11 -160.28 0 -159.72 0L-150.84 0C-150.2 0 -149.74 -0.12 -149.46 -0.36C-149.18 -0.6 -149.04 -1 -149.04 -1.56L-149.04 -16.8C-149.04 -17.36 -148.74 -17.64 -148.14 -17.64L-136.02 -17.64C-135.34 -17.64 -135 -17.94 -135 -18.54L-135 -25.08C-135 -25.8 -135.38 -26.16 -136.14 -26.16L-148.08 -26.16C-148.72 -26.16 -149.04 -26.54 -149.04 -27.3L-149.04 -34.62C-149.04 -35.02 -148.94 -35.3 -148.74 -35.46C-148.54 -35.62 -148.22 -35.7 -147.78 -35.7L-129.6 -35.7C-128.72 -35.7 -128.28 -36.18 -128.28 -37.14L-128.22 -43.38C-128.22 -44.14 -128.54 -44.52 -129.18 -44.52L-160.14 -44.52C-160.46 -44.52 -160.71 -44.41 -160.89 -44.19Z M-84.84 -3.48C-81.64 -6.2 -80.04 -10.72 -80.04 -17.04L-80.04 -43.38C-80.04 -44.14 -80.36 -44.52 -81 -44.52L-88.98 -44.52C-89.7 -44.52 -90.06 -44.1 -90.06 -43.26L-90.06 -16.98C-90.06 -10.98 -92.62 -7.98 -97.74 -7.98C-100.14 -7.98 -101.97 -8.68 -103.23 -10.08C-104.49 -11.48 -105.12 -13.72 -105.12 -16.8L-105.12 -43.38C-105.12 -44.14 -105.46 -44.52 -106.14 -44.52L-116.16 -44.52C-116.88 -44.52 -117.24 -44.1 -117.24 -43.26L-117.24 -18.24C-117.24 -11.88 -115.81 -7.15 -112.95 -4.05C-110.09 -0.95 -105.32 0.6 -98.64 0.6C-92.64 0.6 -88.04 -0.76 -84.84 -3.48Z M-29.82 -44.52L-37.5 -44.52C-38.3 -44.52 -38.7 -44.14 -38.7 -43.38L-38.7 -21.3C-38.7 -20.82 -38.8 -20.58 -39 -20.58C-39.2 -20.58 -39.42 -20.74 -39.66 -21.06L-55.62 -43.56C-55.94 -43.96 -56.21 -44.22 -56.43 -44.34C-56.65 -44.46 -57 -44.52 -57.48 -44.52L-66.06 -44.52C-66.5 -44.52 -66.81 -44.42 -66.99 -44.22C-67.17 -44.02 -67.26 -43.7 -67.26 -43.26L-67.26 -1.14C-67.26 -0.38 -66.82 0 -65.94 0L-58.68 0C-58.2 0 -57.86 -0.08 -57.66 -0.24C-57.46 -0.4 -57.36 -0.66 -57.36 -1.02L-57.36 -1.2L-57.36 -25.26C-57.36 -25.5 -57.3 -25.63 -57.18 -25.65C-57.06 -25.67 -56.92 -25.56 -56.76 -25.32L-39 -0.84C-38.72 -0.48 -38.47 -0.25 -38.25 -0.15C-38.03 -0.05 -37.76 0 -37.44 0L-30.18 0C-29.82 0 -29.52 -0.09 -29.28 -0.27C-29.04 -0.45 -28.92 -0.7 -28.92 -1.02L-28.92 -43.56C-28.92 -44.2 -29.22 -44.52 -29.82 -44.52Z M-7.8 -44.52L-14.22 -44.52C-14.78 -44.52 -15.16 -44.42 -15.36 -44.22C-15.56 -44.02 -15.66 -43.66 -15.66 -43.14L-15.66 -1.62C-15.66 -1.02 -15.54 -0.6 -15.3 -0.36C-15.06 -0.12 -14.66 0 -14.1 0L0.36 0C5.52 0 9.88 -0.93 13.44 -2.79C17 -4.65 19.67 -7.26 21.45 -10.62C23.23 -13.98 24.12 -17.9 24.12 -22.38C24.12 -29.1 22.15 -34.39 18.21 -38.25C14.27 -42.11 8.36 -44.18 0.48 -44.46C-0.68 -44.5 -3.44 -44.52 -7.8 -44.52ZM-3.54 -35.22C-3.54 -35.78 -3.36 -36.06 -3 -36.06L0.66 -35.88C4.26 -35.6 6.95 -34.42 8.73 -32.34C10.51 -30.26 11.4 -26.98 11.4 -22.5C11.4 -17.5 10.29 -13.91 8.07 -11.73C5.85 -9.55 2.5 -8.46 -1.98 -8.46L-2.76 -8.46C-3.08 -8.46 -3.29 -8.52 -3.39 -8.64C-3.49 -8.76 -3.54 -8.98 -3.54 -9.3Z M52.5 -13.56L52.5 -18.48C52.5 -18.8 52.41 -19.07 52.23 -19.29C52.05 -19.51 51.82 -19.62 51.54 -19.62L36.12 -19.56C35.44 -19.56 35.1 -19.16 35.1 -18.36L35.1 -13.38C35.1 -12.9 35.2 -12.55 35.4 -12.33C35.6 -12.11 35.98 -12 36.54 -12L50.7 -12C51.34 -12 51.8 -12.12 52.08 -12.36C52.36 -12.6 52.5 -13 52.5 -13.56Z M65.22 -0.42C65.46 -0.14 65.8 0 66.24 0L73.32 0C73.84 0 74.18 -0.08 74.34 -0.24C74.5 -0.4 74.58 -0.72 74.58 -1.2L74.58 -29.16C74.58 -29.56 74.66 -29.76 74.82 -29.76C74.94 -29.76 75.06 -29.58 75.18 -29.22L84.66 -1.02C84.9 -0.34 85.38 0 86.1 0L91.74 0C92.42 0 92.88 -0.34 93.12 -1.02L102.6 -29.64C102.72 -29.96 102.86 -30.12 103.02 -30.12C103.18 -30.12 103.26 -29.98 103.26 -29.7L103.26 -1.38C103.26 -0.9 103.36 -0.55 103.56 -0.33C103.76 -0.11 104.14 0 104.7 0L113.64 0C114.28 0 114.73 -0.12 114.99 -0.36C115.25 -0.6 115.38 -1 115.38 -1.56L115.38 -43.38C115.38 -44.14 115.04 -44.52 114.36 -44.52L99.18 -44.52C98.5 -44.52 98 -44 97.68 -42.96L90.66 -21.54C90.54 -21.22 90.4 -21.06 90.24 -21.06C90.08 -21.06 89.94 -21.22 89.82 -21.54L82.26 -43.5C82.1 -43.9 81.92 -44.17 81.72 -44.31C81.52 -44.45 81.18 -44.52 80.7 -44.52L66 -44.52C65.6 -44.52 65.31 -44.42 65.13 -44.22C64.95 -44.02 64.86 -43.7 64.86 -43.26L64.86 -1.56C64.86 -1.08 64.98 -0.7 65.22 -0.42Z M129.72 -44.52C129.04 -44.52 128.7 -44.1 128.7 -43.26L128.7 -1.38C128.7 -0.9 128.81 -0.55 129.03 -0.33C129.25 -0.11 129.62 0 130.14 0L161.4 0C162.24 0 162.66 -0.4 162.66 -1.2L162.66 -7.8C162.66 -8.16 162.56 -8.42 162.36 -8.58C162.16 -8.74 161.86 -8.82 161.46 -8.82L141.48 -8.82C141.24 -8.82 141.07 -8.88 140.97 -9C140.87 -9.12 140.82 -9.32 140.82 -9.6L140.82 -17.22C140.82 -17.78 141.12 -18.06 141.72 -18.06L153.66 -18.06C154.3 -18.06 154.62 -18.36 154.62 -18.96L154.62 -25.62C154.62 -26.34 154.24 -26.7 153.48 -26.7L141.78 -26.7C141.5 -26.7 141.27 -26.8 141.09 -27C140.91 -27.2 140.82 -27.48 140.82 -27.84L140.82 -34.62C140.82 -35.34 141.24 -35.7 142.08 -35.7L160.62 -35.7C161.1 -35.7 161.46 -35.83 161.7 -36.09C161.94 -36.35 162.06 -36.7 162.06 -37.14L162.06 -43.38C162.06 -44.14 161.74 -44.52 161.1 -44.52Z"></path></g><g id="SvgjsG1173" class="text" transform="translate(296.70495274965515, 87.14299946594238) scale(1)" light-content="false" fill="#030303"><path d="M-156.47 -17.78C-157.4 -17.8 -158.82 -17.81 -160.74 -17.81C-160.89 -17.81 -160.99 -17.78 -161.05 -17.72C-161.12 -17.67 -161.15 -17.58 -161.15 -17.45L-161.15 -0.43C-161.15 -0.14 -161.01 0 -160.72 0L-156.69 0C-153.5 0 -151.11 -0.76 -149.51 -2.29C-147.91 -3.82 -147.11 -6.06 -147.11 -9C-147.11 -11.85 -147.87 -14.01 -149.38 -15.48C-150.89 -16.95 -153.25 -17.72 -156.47 -17.78ZM-158.25 -15.34C-158.25 -15.56 -158.18 -15.67 -158.05 -15.67L-156.57 -15.65C-155.05 -15.58 -153.82 -15.34 -152.89 -14.92C-151.97 -14.49 -151.27 -13.8 -150.82 -12.85C-150.36 -11.9 -150.13 -10.61 -150.13 -8.98C-150.13 -7.31 -150.38 -5.98 -150.88 -4.97C-151.37 -3.96 -152.14 -3.23 -153.16 -2.78C-154.18 -2.34 -155.52 -2.11 -157.17 -2.11L-157.96 -2.11C-158.07 -2.11 -158.15 -2.13 -158.19 -2.17C-158.23 -2.21 -158.25 -2.29 -158.25 -2.4Z M-130.93 -3.52C-131.28 -4.1 -131.45 -4.75 -131.45 -5.47C-131.45 -5.73 -131.37 -5.86 -131.21 -5.86L-122.33 -5.86C-122.17 -5.86 -122.07 -5.89 -122.03 -5.96C-121.99 -6.04 -121.97 -6.14 -121.97 -6.29L-121.97 -6.38C-121.97 -7.74 -122.21 -8.92 -122.7 -9.91C-123.19 -10.9 -123.88 -11.66 -124.78 -12.18C-125.67 -12.7 -126.71 -12.96 -127.9 -12.96C-129.05 -12.96 -130.09 -12.68 -131.03 -12.13C-131.96 -11.58 -132.7 -10.79 -133.25 -9.77C-133.79 -8.74 -134.06 -7.56 -134.06 -6.22C-134.06 -4.97 -133.8 -3.85 -133.27 -2.87C-132.74 -1.88 -132.01 -1.12 -131.06 -0.58C-130.12 -0.03 -129.05 0.24 -127.85 0.24C-126.62 0.24 -125.57 0.02 -124.7 -0.42C-123.84 -0.86 -123.07 -1.58 -122.4 -2.57C-122.35 -2.65 -122.33 -2.71 -122.33 -2.76C-122.33 -2.84 -122.37 -2.9 -122.45 -2.95L-123.67 -3.53C-123.72 -3.56 -123.78 -3.58 -123.86 -3.58C-123.93 -3.58 -123.98 -3.54 -124.03 -3.48C-124.51 -2.84 -125.04 -2.37 -125.62 -2.06C-126.19 -1.76 -126.85 -1.61 -127.58 -1.61C-128.29 -1.61 -128.94 -1.78 -129.53 -2.12C-130.12 -2.47 -130.59 -2.93 -130.93 -3.52ZM-124.9 -7.37L-131.4 -7.39C-131.42 -8.08 -131.28 -8.72 -130.98 -9.3C-130.68 -9.88 -130.26 -10.36 -129.72 -10.72C-129.18 -11.08 -128.54 -11.26 -127.82 -11.26C-127.14 -11.26 -126.54 -11.09 -126.04 -10.76C-125.53 -10.44 -125.15 -10 -124.88 -9.46C-124.62 -8.91 -124.49 -8.33 -124.49 -7.7C-124.49 -7.58 -124.52 -7.49 -124.57 -7.44C-124.63 -7.39 -124.74 -7.37 -124.9 -7.37Z M-97.78 -12.59C-97.83 -12.68 -97.91 -12.72 -98.02 -12.72L-99.44 -12.72C-99.62 -12.72 -99.76 -12.62 -99.87 -12.43L-103.28 -3.74C-103.36 -3.57 -103.43 -3.48 -103.5 -3.48C-103.56 -3.48 -103.62 -3.56 -103.66 -3.72L-107.12 -12.41C-107.17 -12.62 -107.3 -12.72 -107.53 -12.72L-109.52 -12.72C-109.62 -12.72 -109.7 -12.69 -109.76 -12.64C-109.82 -12.58 -109.86 -12.5 -109.86 -12.41C-109.86 -12.36 -109.85 -12.32 -109.83 -12.29L-105.01 -0.38C-104.9 -0.13 -104.68 0 -104.36 0L-103.23 0C-102.91 0 -102.7 -0.14 -102.61 -0.41L-97.76 -12.31C-97.73 -12.41 -97.74 -12.5 -97.78 -12.59Z M-62.02 -12.41C-62.02 -12.62 -62.13 -12.72 -62.35 -12.72L-64.85 -12.72C-65.01 -12.72 -65.09 -12.79 -65.09 -12.94L-65.09 -14.4C-65.09 -14.91 -64.98 -15.31 -64.75 -15.6C-64.53 -15.89 -64.19 -16.03 -63.74 -16.03L-62.21 -16.03C-62.11 -16.03 -62.04 -16.06 -61.98 -16.12C-61.92 -16.17 -61.9 -16.24 -61.9 -16.32L-61.92 -17.45C-61.92 -17.69 -62.04 -17.81 -62.28 -17.81L-64.42 -17.81C-65.46 -17.81 -66.24 -17.54 -66.78 -16.99C-67.32 -16.45 -67.58 -15.67 -67.58 -14.66L-67.58 -13.01C-67.58 -12.9 -67.6 -12.82 -67.63 -12.78C-67.66 -12.74 -67.73 -12.72 -67.82 -12.72L-69.89 -12.72C-70.1 -12.72 -70.2 -12.62 -70.2 -12.41L-70.2 -11.16C-70.2 -10.98 -70.1 -10.9 -69.91 -10.9L-67.75 -10.9C-67.64 -10.9 -67.58 -10.83 -67.58 -10.7L-67.58 -0.34C-67.58 -0.11 -67.49 0 -67.3 0L-65.35 0C-65.14 0 -65.04 -0.13 -65.04 -0.38L-65.04 -10.68C-65.04 -10.82 -64.97 -10.9 -64.82 -10.9L-62.33 -10.9C-62.12 -10.9 -62.02 -10.98 -62.02 -11.16Z M-41.07 -3.58C-42.29 -2.31 -43.45 -1.68 -44.55 -1.68C-45.22 -1.68 -45.76 -1.89 -46.16 -2.32C-46.56 -2.74 -46.76 -3.3 -46.76 -4.01L-46.76 -12.34C-46.76 -12.59 -46.88 -12.72 -47.12 -12.72L-48.87 -12.72C-49.16 -12.72 -49.3 -12.58 -49.3 -12.29L-49.3 -3.48C-49.3 -2.36 -48.95 -1.46 -48.25 -0.78C-47.54 -0.1 -46.64 0.24 -45.54 0.24C-44.8 0.24 -44.1 0.09 -43.42 -0.2C-42.75 -0.5 -42.02 -1.01 -41.24 -1.73C-41.08 -1.87 -41 -1.85 -41 -1.66L-41 -0.31C-41 -0.1 -40.9 0 -40.71 0L-38.84 0C-38.65 0 -38.55 -0.11 -38.55 -0.34L-38.5 -12.34C-38.5 -12.59 -38.63 -12.72 -38.89 -12.72L-40.62 -12.72C-40.92 -12.72 -41.07 -12.58 -41.07 -12.31Z M-24.52 -0.38C-24.52 -0.13 -24.39 0 -24.14 0L-22.43 0C-22.27 0 -22.16 -0.03 -22.08 -0.1C-22.01 -0.16 -21.98 -0.26 -21.98 -0.41L-21.98 -9.24C-21.27 -9.88 -20.66 -10.34 -20.14 -10.62C-19.62 -10.9 -19.06 -11.04 -18.45 -11.04C-17.7 -11.04 -17.13 -10.84 -16.76 -10.45C-16.38 -10.06 -16.19 -9.5 -16.19 -8.78L-16.19 -0.38C-16.19 -0.13 -16.07 0 -15.83 0L-14.06 0C-13.78 0 -13.65 -0.14 -13.65 -0.43L-13.65 -9.29C-13.65 -10.41 -13.99 -11.3 -14.67 -11.96C-15.35 -12.63 -16.29 -12.96 -17.49 -12.96C-18.24 -12.96 -18.94 -12.8 -19.58 -12.49C-20.22 -12.18 -20.95 -11.69 -21.78 -11.02C-21.86 -10.94 -21.92 -10.9 -21.96 -10.92C-22 -10.94 -22.02 -10.99 -22.02 -11.09L-22.02 -12.41C-22.02 -12.62 -22.12 -12.72 -22.31 -12.72L-24.21 -12.72C-24.42 -12.72 -24.52 -12.6 -24.52 -12.36Z M8.83 -0.38C8.83 -0.13 8.96 0 9.22 0L10.87 0C11.03 0 11.15 -0.03 11.22 -0.1C11.29 -0.16 11.33 -0.26 11.33 -0.41L11.33 -17.45C11.33 -17.56 11.3 -17.65 11.24 -17.71C11.19 -17.78 11.11 -17.81 11.02 -17.81L9.1 -17.81C8.89 -17.81 8.78 -17.69 8.78 -17.45L8.78 -11.86C8.78 -11.66 8.74 -11.57 8.64 -11.57C8.56 -11.57 8.48 -11.61 8.4 -11.69C7.94 -12.09 7.44 -12.4 6.91 -12.62C6.38 -12.85 5.78 -12.96 5.09 -12.96C4.05 -12.96 3.11 -12.68 2.27 -12.11C1.43 -11.54 0.77 -10.74 0.3 -9.72C-0.17 -8.7 -0.41 -7.52 -0.41 -6.19C-0.41 -4.82 -0.18 -3.64 0.26 -2.68C0.71 -1.71 1.33 -0.98 2.12 -0.49C2.92 0 3.82 0.24 4.82 0.24C5.69 0.24 6.4 0.08 6.96 -0.23C7.52 -0.54 8.04 -0.93 8.52 -1.39C8.6 -1.47 8.66 -1.51 8.71 -1.51C8.79 -1.51 8.83 -1.44 8.83 -1.3ZM7.37 -10.85C7.83 -10.61 8.3 -10.24 8.78 -9.74L8.78 -4.13C8.78 -3.71 8.64 -3.3 8.36 -2.89C8.08 -2.48 7.71 -2.15 7.25 -1.88C6.78 -1.62 6.27 -1.49 5.71 -1.49C4.67 -1.49 3.82 -1.88 3.17 -2.68C2.51 -3.47 2.18 -4.66 2.18 -6.26C2.18 -7.86 2.52 -9.09 3.19 -9.94C3.86 -10.78 4.74 -11.21 5.83 -11.21C6.39 -11.21 6.9 -11.09 7.37 -10.85Z M25.34 -0.38C25.34 -0.13 25.46 0 25.72 0L27.42 0C27.73 0 27.88 -0.14 27.88 -0.41L27.88 -8.06C27.88 -8.48 28.05 -8.89 28.38 -9.29C28.72 -9.69 29.14 -10.01 29.63 -10.26C30.13 -10.51 30.6 -10.63 31.05 -10.63C31.59 -10.63 32.02 -10.59 32.32 -10.51C32.5 -10.48 32.58 -10.56 32.58 -10.75L32.58 -12.62C32.58 -12.85 32.3 -12.96 31.74 -12.96C31.14 -12.96 30.52 -12.78 29.88 -12.41C29.25 -12.04 28.64 -11.51 28.05 -10.82C27.98 -10.74 27.92 -10.71 27.87 -10.73C27.81 -10.74 27.78 -10.8 27.78 -10.9L27.78 -12.41C27.78 -12.62 27.69 -12.72 27.5 -12.72L25.65 -12.72C25.44 -12.72 25.34 -12.6 25.34 -12.36Z M48.56 0.24C50.13 0.24 51.5 -0.32 52.66 -1.44C52.79 -1.54 52.88 -1.58 52.93 -1.58C52.99 -1.58 53.04 -1.52 53.07 -1.39L53.12 -0.48C53.15 -0.16 53.28 0 53.5 0L55.11 0C55.24 0 55.33 -0.03 55.39 -0.08C55.44 -0.14 55.47 -0.25 55.47 -0.41L55.47 -8.88C55.47 -10.16 55.06 -11.16 54.22 -11.88C53.39 -12.6 52.14 -12.96 50.46 -12.96C49.16 -12.96 48.05 -12.72 47.13 -12.25C46.21 -11.78 45.53 -11.11 45.08 -10.25C45.03 -10.14 45.01 -10.05 45.01 -9.98C45.01 -9.89 45.06 -9.82 45.15 -9.79L46.78 -9.31C46.9 -9.28 46.98 -9.28 47.04 -9.3C47.09 -9.32 47.14 -9.38 47.19 -9.48C47.98 -10.66 49.02 -11.26 50.34 -11.26C51.17 -11.26 51.82 -11.03 52.3 -10.57C52.78 -10.12 53.02 -9.5 53.02 -8.71L53.02 -8.11C53.02 -7.9 52.9 -7.78 52.64 -7.75L51.08 -7.63C49 -7.54 47.4 -7.1 46.27 -6.34C45.14 -5.57 44.58 -4.54 44.58 -3.24C44.58 -2.18 44.93 -1.34 45.64 -0.71C46.36 -0.08 47.33 0.24 48.56 0.24ZM52.69 -6.34C52.91 -6.35 53.02 -6.23 53.02 -5.98L53.02 -4.1C53.02 -3.54 52.68 -2.98 51.99 -2.42C51.22 -1.83 50.41 -1.54 49.54 -1.54C48.79 -1.54 48.19 -1.72 47.74 -2.08C47.3 -2.44 47.07 -2.93 47.07 -3.55C47.07 -4.35 47.46 -4.98 48.24 -5.44C49.01 -5.89 50.06 -6.16 51.39 -6.24Z M71.9 -15.26L71.9 -17.42C71.9 -17.54 71.87 -17.63 71.81 -17.7C71.74 -17.77 71.66 -17.81 71.57 -17.81L69.58 -17.81C69.34 -17.81 69.22 -17.67 69.22 -17.4L69.22 -15.22C69.22 -15.06 69.25 -14.94 69.31 -14.87C69.38 -14.8 69.49 -14.76 69.65 -14.76L71.42 -14.76C71.6 -14.76 71.72 -14.8 71.8 -14.88C71.87 -14.96 71.9 -15.09 71.9 -15.26ZM71.83 -0.46L71.83 -12.38C71.83 -12.61 71.74 -12.72 71.54 -12.72L69.62 -12.72C69.5 -12.72 69.41 -12.69 69.36 -12.64C69.31 -12.58 69.29 -12.49 69.29 -12.36L69.29 -0.38C69.29 -0.24 69.32 -0.14 69.38 -0.08C69.45 -0.03 69.56 0 69.72 0L71.35 0C71.53 0 71.65 -0.03 71.72 -0.1C71.8 -0.16 71.83 -0.28 71.83 -0.46Z M92.25 -10.86C92.79 -10.58 93.23 -10.21 93.57 -9.74C93.65 -9.66 93.74 -9.62 93.83 -9.62C93.9 -9.62 93.94 -9.63 93.98 -9.65L95.22 -10.3C95.3 -10.34 95.34 -10.4 95.34 -10.46C95.34 -10.53 95.31 -10.61 95.25 -10.7C94.82 -11.38 94.17 -11.92 93.3 -12.34C92.44 -12.75 91.46 -12.96 90.38 -12.96C89.37 -12.96 88.48 -12.8 87.72 -12.47C86.96 -12.14 86.37 -11.68 85.95 -11.1C85.52 -10.52 85.31 -9.84 85.31 -9.07C85.31 -8.22 85.58 -7.52 86.13 -6.96C86.67 -6.4 87.54 -5.98 88.72 -5.69L91.17 -5.06C91.92 -4.87 92.46 -4.64 92.79 -4.36C93.12 -4.08 93.28 -3.74 93.28 -3.34C93.28 -2.78 92.99 -2.33 92.42 -2C91.84 -1.68 91.11 -1.51 90.23 -1.51C88.57 -1.51 87.31 -2.15 86.46 -3.43C86.42 -3.5 86.35 -3.53 86.27 -3.53C86.21 -3.53 86.13 -3.5 86.03 -3.46L84.86 -2.83C84.78 -2.78 84.74 -2.71 84.74 -2.62C84.74 -2.55 84.76 -2.48 84.81 -2.4C85.22 -1.62 85.92 -0.98 86.9 -0.49C87.87 0 89 0.24 90.28 0.24C91.3 0.24 92.22 0.08 93.04 -0.24C93.86 -0.56 94.49 -1.01 94.95 -1.6C95.4 -2.18 95.63 -2.86 95.63 -3.62C95.63 -4.44 95.36 -5.15 94.83 -5.75C94.29 -6.35 93.46 -6.79 92.34 -7.08L89.39 -7.92C88.72 -8.11 88.26 -8.34 88 -8.59C87.74 -8.85 87.62 -9.14 87.62 -9.46C87.62 -10.02 87.87 -10.46 88.38 -10.79C88.9 -11.12 89.55 -11.28 90.35 -11.28C91.07 -11.28 91.7 -11.14 92.25 -10.86Z M111.56 -15.26L111.56 -17.42C111.56 -17.54 111.53 -17.63 111.46 -17.7C111.4 -17.77 111.32 -17.81 111.22 -17.81L109.23 -17.81C108.99 -17.81 108.87 -17.67 108.87 -17.4L108.87 -15.22C108.87 -15.06 108.9 -14.94 108.97 -14.87C109.03 -14.8 109.14 -14.76 109.3 -14.76L111.08 -14.76C111.26 -14.76 111.38 -14.8 111.45 -14.88C111.52 -14.96 111.56 -15.09 111.56 -15.26ZM111.49 -0.46L111.49 -12.38C111.49 -12.61 111.39 -12.72 111.2 -12.72L109.28 -12.72C109.15 -12.72 109.06 -12.69 109.02 -12.64C108.97 -12.58 108.94 -12.49 108.94 -12.36L108.94 -0.38C108.94 -0.24 108.98 -0.14 109.04 -0.08C109.1 -0.03 109.22 0 109.38 0L111.01 0C111.18 0 111.31 -0.03 111.38 -0.1C111.45 -0.16 111.49 -0.28 111.49 -0.46Z M125.52 -0.38C125.52 -0.13 125.65 0 125.9 0L127.61 0C127.77 0 127.88 -0.03 127.96 -0.1C128.03 -0.16 128.06 -0.26 128.06 -0.41L128.06 -9.24C128.77 -9.88 129.38 -10.34 129.9 -10.62C130.42 -10.9 130.98 -11.04 131.59 -11.04C132.34 -11.04 132.91 -10.84 133.28 -10.45C133.66 -10.06 133.85 -9.5 133.85 -8.78L133.85 -0.38C133.85 -0.13 133.97 0 134.21 0L135.98 0C136.26 0 136.39 -0.14 136.39 -0.43L136.39 -9.29C136.39 -10.41 136.05 -11.3 135.37 -11.96C134.69 -12.63 133.75 -12.96 132.55 -12.96C131.8 -12.96 131.1 -12.8 130.46 -12.49C129.82 -12.18 129.09 -11.69 128.26 -11.02C128.18 -10.94 128.12 -10.9 128.08 -10.92C128.04 -10.94 128.02 -10.99 128.02 -11.09L128.02 -12.41C128.02 -12.62 127.92 -12.72 127.73 -12.72L125.83 -12.72C125.62 -12.72 125.52 -12.6 125.52 -12.36Z M162.66 -12.6C162.66 -12.89 162.51 -13.03 162.21 -13.03C161.84 -13.03 161.43 -12.92 160.99 -12.68C160.55 -12.45 160.18 -12.18 159.88 -11.86C159.78 -11.76 159.69 -11.71 159.59 -11.71C159.53 -11.71 159.44 -11.75 159.33 -11.83C158.45 -12.55 157.22 -12.91 155.65 -12.91C153.86 -12.91 152.47 -12.56 151.49 -11.84C150.51 -11.13 150.01 -10.15 150.01 -8.9C150.01 -8.17 150.19 -7.54 150.54 -7.01C150.89 -6.48 151.43 -6.03 152.15 -5.66C152.25 -5.62 152.29 -5.56 152.29 -5.5C152.29 -5.45 152.25 -5.41 152.15 -5.38C151.51 -5.15 151.01 -4.87 150.65 -4.54C150.29 -4.2 150.11 -3.84 150.11 -3.46C150.11 -2.8 150.51 -2.29 151.31 -1.92C151.5 -1.84 151.5 -1.75 151.31 -1.66C150.58 -1.32 150.01 -0.94 149.63 -0.53C149.25 -0.11 149.05 0.37 149.05 0.91C149.05 1.98 149.6 2.8 150.7 3.36C151.8 3.92 153.4 4.2 155.51 4.2C157.54 4.2 159.11 3.85 160.23 3.14C161.34 2.44 161.89 1.47 161.89 0.24C161.89 -0.75 161.54 -1.54 160.83 -2.14C160.12 -2.73 159.04 -3.06 157.6 -3.14L154.41 -3.34C153.69 -3.37 153.18 -3.44 152.87 -3.54C152.57 -3.64 152.41 -3.82 152.41 -4.06C152.41 -4.34 152.65 -4.58 153.13 -4.75C153.61 -4.93 154.38 -5.02 155.44 -5.02C157.18 -5.02 158.51 -5.38 159.43 -6.11C160.36 -6.84 160.81 -7.77 160.81 -8.9C160.81 -9.29 160.76 -9.62 160.66 -9.89C160.55 -10.16 160.49 -10.32 160.48 -10.37C160.45 -10.5 160.47 -10.6 160.54 -10.69C160.61 -10.78 160.75 -10.86 160.96 -10.92C161.12 -10.97 161.31 -11 161.53 -11.02C161.76 -11.03 162 -11.04 162.25 -11.04C162.53 -11.04 162.66 -11.2 162.66 -11.52ZM157.71 -7.09C157.2 -6.67 156.45 -6.46 155.44 -6.46C154.45 -6.46 153.68 -6.67 153.15 -7.1C152.61 -7.54 152.34 -8.14 152.34 -8.9C152.34 -9.69 152.61 -10.31 153.16 -10.76C153.7 -11.22 154.46 -11.45 155.44 -11.45C156.43 -11.45 157.18 -11.22 157.69 -10.78C158.21 -10.33 158.46 -9.7 158.46 -8.9C158.46 -8.12 158.21 -7.52 157.71 -7.09ZM153.42 -1.3L157.33 -1.08C158.84 -0.98 159.59 -0.42 159.59 0.62C159.59 1.34 159.26 1.88 158.61 2.24C157.95 2.6 157 2.78 155.75 2.78C152.74 2.78 151.24 2.06 151.24 0.6C151.24 0.23 151.36 -0.1 151.59 -0.4C151.82 -0.69 152.11 -0.92 152.45 -1.08C152.79 -1.24 153.12 -1.31 153.42 -1.3Z"></path></g></g></svg>