<svg id="SvgjsSvg1016" width="100%" height="100%" xmlns="http://www.w3.org/2000/svg" version="1.1" xlink="http://www.w3.org/1999/xlink" xmlns:svgjs="http://svgjs.com/svgjs" preserveAspectRatio="xMidYMid meet" viewBox="0 0 300.0000305175781 43.495365142822266" overflow="visible"><defs id="SvgjsDefs1017"><linearGradient id="SvgjsLinearGradientQdCIGVKvE" gradientUnits="userSpaceOnUse" x1="4.2632564145606005e-14" y1="99.99999999999997" x2="99.99999999999999" y2="-3.5527136788005e-15"><stop id="SvgjsStop1020" stop-color="#1c9cff" offset="0.05"></stop><stop id="SvgjsStop1021" stop-color="#1c9cff" offset="0.95"></stop></linearGradient><linearGradient id="SvgjsLinearGradientAkHzNnrPLc" gradientUnits="userSpaceOnUse" x1="-17.922500610351562" y1="-0.7524986267089824" x2="17.92250061035156" y2="-36.59749984741211"><stop id="SvgjsStop1024" stop-color="#1c9cff" offset="0.05"></stop><stop id="SvgjsStop1025" stop-color="#1c9cff" offset="0.95"></stop></linearGradient></defs><g id="SvgjsG1018" transform="scale(0.568620345084315)" opacity="1"><g id="SvgjsG1022" class="Yi5Sywwwv8" transform="translate(0, 0) scale(0.764928)" light-content="false" non-strokable="false" fill="url(#SvgjsLinearGradientQdCIGVKvE)"><path d="M0 0v100h100V0H0zm98 98H2V2h96v96z" fill-rule="evenodd"></path></g><g id="SvgjsG1026" class="text" transform="translate(38.24840015258789, 56.92040030517578) scale(1)" light-content="false" fill="url(#SvgjsLinearGradientAkHzNnrPLc)"><path d="M-11.08 -4.32C-7.4 -1.05 -2.05 0.58 4.99 0.58C7.23 0.58 9.28 0.43 11.14 0.12C12.99 -0.19 14.81 -0.68 16.59 -1.33L16.59 -12.24C13.19 -10.73 9.61 -9.98 5.86 -9.98C2.65 -9.98 0.22 -10.65 -1.42 -12.01C-3.06 -13.36 -3.89 -15.54 -3.89 -18.56C-3.89 -21.65 -3.08 -23.9 -1.48 -25.29C0.13 -26.68 2.53 -27.38 5.74 -27.38C9.42 -27.38 12.99 -26.6 16.47 -25.06L16.47 -35.9C14.65 -36.6 12.84 -37.11 11.02 -37.44C9.2 -37.77 7.15 -37.93 4.87 -37.93C-2.2 -37.93 -7.55 -36.29 -11.16 -33C-14.78 -29.72 -16.59 -24.9 -16.59 -18.56C-16.59 -12.33 -14.75 -7.59 -11.08 -4.32Z"></path></g><g id="SvgjsG1027" class="text" transform="translate(322.5428030517578, 57.5664016784668) scale(1)" light-content="false" fill="#3b3b3b"><path d="M-199.35 -4.47C-195.55 -1.09 -190.01 0.6 -182.73 0.6C-180.41 0.6 -178.29 0.44 -176.37 0.12C-174.45 -0.2 -172.57 -0.7 -170.73 -1.38L-170.73 -12.66C-174.25 -11.1 -177.95 -10.32 -181.83 -10.32C-185.15 -10.32 -187.66 -11.02 -189.36 -12.42C-191.06 -13.82 -191.91 -16.08 -191.91 -19.2C-191.91 -22.4 -191.08 -24.72 -189.42 -26.16C-187.76 -27.6 -185.27 -28.32 -181.95 -28.32C-178.15 -28.32 -174.45 -27.52 -170.85 -25.92L-170.85 -37.14C-172.73 -37.86 -174.61 -38.39 -176.49 -38.73C-178.37 -39.07 -180.49 -39.24 -182.85 -39.24C-190.17 -39.24 -195.7 -37.54 -199.44 -34.14C-203.18 -30.74 -205.05 -25.76 -205.05 -19.2C-205.05 -12.76 -203.15 -7.85 -199.35 -4.47Z M-161.13 -38.64L-161.13 0L-148.23 0L-148.23 -10.56L-146.37 -10.56C-145.73 -10.56 -145.24 -10.44 -144.9 -10.2C-144.56 -9.96 -144.25 -9.54 -143.97 -8.94L-140.01 0L-126.57 0L-131.07 -10.32C-131.59 -11.48 -132.23 -12.36 -132.99 -12.96C-130.87 -14.2 -129.18 -15.81 -127.92 -17.79C-126.66 -19.77 -126.03 -22.02 -126.03 -24.54C-126.03 -28.78 -127.23 -32.19 -129.63 -34.77C-132.03 -37.35 -135.57 -38.64 -140.25 -38.64ZM-143.49 -20.52L-148.23 -20.52L-148.23 -28.62L-143.19 -28.62C-140.51 -28.62 -139.17 -27.26 -139.17 -24.54C-139.17 -23.22 -139.54 -22.22 -140.28 -21.54C-141.02 -20.86 -142.09 -20.52 -143.49 -20.52Z M-113.43 -4.11C-110.03 -0.97 -104.99 0.6 -98.31 0.6C-91.63 0.6 -86.59 -0.97 -83.19 -4.11C-79.79 -7.25 -78.09 -12.3 -78.09 -19.26C-78.09 -26.3 -79.79 -31.39 -83.19 -34.53C-86.59 -37.67 -91.63 -39.24 -98.31 -39.24C-104.99 -39.24 -110.03 -37.67 -113.43 -34.53C-116.83 -31.39 -118.53 -26.3 -118.53 -19.26C-118.53 -12.3 -116.83 -7.25 -113.43 -4.11ZM-92.94 -12.42C-94.04 -11.02 -95.83 -10.32 -98.31 -10.32C-100.83 -10.32 -102.64 -11.01 -103.74 -12.39C-104.84 -13.77 -105.39 -16.06 -105.39 -19.26C-105.39 -22.54 -104.84 -24.86 -103.74 -26.22C-102.64 -27.58 -100.83 -28.26 -98.31 -28.26C-95.79 -28.26 -93.99 -27.58 -92.91 -26.22C-91.83 -24.86 -91.29 -22.54 -91.29 -19.26C-91.29 -16.1 -91.84 -13.82 -92.94 -12.42Z M-73.59 -38.64L-64.59 0L-53.19 0L-47.55 -17.58L-42.33 0L-30.87 0L-21.93 -38.64L-34.53 -38.64L-38.49 -20.94L-43.59 -38.64L-54.09 -38.64L-54.09 -32.46L-57.33 -21L-60.99 -38.64Z M-12.33 -38.64L-12.33 0L5.49 0C18.41 0 24.87 -6.36 24.87 -19.08C24.87 -25.88 23.21 -30.84 19.89 -33.96C16.57 -37.08 11.77 -38.64 5.49 -38.64ZM3.93 -9.84L0.57 -9.84L0.57 -28.38L3.93 -28.38C5.81 -28.38 7.3 -28.12 8.4 -27.6C9.5 -27.08 10.33 -26.15 10.89 -24.81C11.45 -23.47 11.73 -21.56 11.73 -19.08C11.73 -16.6 11.43 -14.69 10.83 -13.35C10.23 -12.01 9.37 -11.09 8.25 -10.59C7.13 -10.09 5.69 -9.84 3.93 -9.84Z M34.47 -38.64L34.47 0L47.37 0L47.37 -14.46L62.13 -14.46L62.13 -24.12L47.37 -24.12L47.37 -29.22L64.41 -29.22L64.41 -38.64Z M81.54 -1.2C84.36 0 87.61 0.6 91.29 0.6C94.97 0.6 98.22 0 101.04 -1.2C103.86 -2.4 106.07 -4.18 107.67 -6.54C109.27 -8.9 110.07 -11.74 110.07 -15.06L110.07 -38.64L97.17 -38.64L97.17 -16.56C97.17 -12.4 95.21 -10.32 91.29 -10.32C87.37 -10.32 85.41 -12.4 85.41 -16.56L85.41 -38.64L72.51 -38.64L72.51 -15.06C72.51 -11.74 73.31 -8.9 74.91 -6.54C76.51 -4.18 78.72 -2.4 81.54 -1.2Z M120.57 -38.64L120.57 0L133.47 0L133.47 -17.76L146.07 0L157.05 0L157.05 -38.64L144.15 -38.64L144.15 -20.82L131.43 -38.64Z M167.85 -38.64L167.85 0L185.67 0C198.59 0 205.05 -6.36 205.05 -19.08C205.05 -25.88 203.39 -30.84 200.07 -33.96C196.75 -37.08 191.95 -38.64 185.67 -38.64ZM184.11 -9.84L180.75 -9.84L180.75 -28.38L184.11 -28.38C185.99 -28.38 187.48 -28.12 188.58 -27.6C189.68 -27.08 190.51 -26.15 191.07 -24.81C191.63 -23.47 191.91 -21.56 191.91 -19.08C191.91 -16.6 191.61 -14.69 191.01 -13.35C190.41 -12.01 189.55 -11.09 188.43 -10.59C187.31 -10.09 185.87 -9.84 184.11 -9.84Z"></path></g></g></svg>